<?xml version="1.0" encoding="utf-8"?>
<!-- Generator: Adobe Illustrator 16.0.0, SVG Export Plug-In . SVG Version: 6.00 Build 0)  -->
<!DOCTYPE svg PUBLIC "-//W3C//DTD SVG 1.1//EN" "http://www.w3.org/Graphics/SVG/1.1/DTD/svg11.dtd">
<svg version="1.1" id="Layer_1" xmlns="http://www.w3.org/2000/svg" xmlns:xlink="http://www.w3.org/1999/xlink" x="0px" y="0px"
	 width="232px" height="164px" viewBox="0 0 232 164" enable-background="new 0 0 232 164" xml:space="preserve">
<g>
	<polygon fill-rule="evenodd" clip-rule="evenodd" fill="#EE202E" points="3.476,77.942 68.576,77.942 68.576,62.535 26.206,62.535 
		26.206,47.542 65.465,47.542 65.465,32.134 26.206,32.134 26.206,18.181 68.576,18.181 68.576,2.762 3.476,2.762 	"/>
	<path fill-rule="evenodd" clip-rule="evenodd" fill="#EE202E" d="M78.412,77.942h42.007c22.576,0,29.474-10.829,29.474-21.026
		c0-9.579-7.092-16.765-18.142-17.801v-0.212c9.169-2.389,15.081-9.059,15.081-17.604c0-9.572-7.593-18.536-26.518-18.536H78.412
		V77.942z M98.528,46.814h19.516c5.132,0,10.557,2.39,10.557,8.643c0,6.662-5.033,8.538-11.541,8.538H98.528V46.814z M98.528,16.721
		h14.595c7.989,0,12.417,2.078,12.417,8.337c0,5.828-5.226,8.424-14.098,8.424H98.528V16.721z"/>
	<path fill-rule="evenodd" clip-rule="evenodd" fill="#EE202E" d="M149.55,111.344c-0.257-18.905-15.433-25.346-31.118-25.346
		c-21.998,0-36.327,10.886-36.327,37.711c0,26.619,15.008,37.513,33.421,37.513c18.591,0,33.587-5.048,34.367-26.127H130.96
		c-0.605,8.704-6.816,11.474-13.649,11.474c-12.095,0-16.782-10.683-16.782-23.357c0-13.054,5.63-22.556,17.297-22.556
		c6.823,0,12.374,2.77,13.307,10.688H149.55z"/>
	<path fill-rule="evenodd" clip-rule="evenodd" fill="#EE202E" d="M172.446,123.626c0-12.574,4.633-22.971,18.614-22.971
		c13.971,0,18.591,10.396,18.591,22.971c0,12.576-4.62,22.968-18.591,22.968C177.079,146.594,172.446,136.202,172.446,123.626
		 M153.59,123.626c0,21.587,11.087,37.616,37.471,37.616c26.364,0,37.467-16.029,37.467-37.616c0-21.59-11.103-37.628-37.467-37.628
		C164.677,85.998,153.59,102.036,153.59,123.626"/>
	<path fill-rule="evenodd" clip-rule="evenodd" fill="#A9B1B6" d="M4.897,92.854c0-2.95,2.361-5.332,5.281-5.332
		c20.844-1.995,41.306-1.995,61.388,0c2.924,0,5.283,2.382,5.283,5.332c2.086,21.453,2.086,42.129,0,62.023
		c0,2.945-2.359,5.326-5.283,5.326c-20.94,1.351-41.4,1.351-61.388,0c-2.92,0-5.281-2.381-5.281-5.326
		C2.998,132.652,2.998,111.973,4.897,92.854"/>
	<path fill-rule="evenodd" clip-rule="evenodd" fill="#A9B1B6" d="M155.005,9.581c0-2.946,2.363-5.326,5.282-5.326
		c20.846-1.995,41.31-1.995,61.395,0c2.902,0,5.286,2.38,5.286,5.326c2.067,21.457,2.067,42.125,0,62.024
		c0,2.946-2.384,5.332-5.286,5.332c-20.95,1.339-41.408,1.339-61.395,0c-2.919,0-5.282-2.386-5.282-5.332
		C153.11,49.377,153.11,28.706,155.005,9.581"/>
</g>
</svg>
